<?xml version="1.0" standalone="no"?>
<!DOCTYPE svg PUBLIC "-//W3C//DTD SVG 20010904//EN"
 "http://www.w3.org/TR/2001/REC-SVG-20010904/DTD/svg10.dtd">
<svg version="1.0" xmlns="http://www.w3.org/2000/svg"
 width="16.000000pt" height="16.000000pt" viewBox="0 0 16.000000 16.000000"
 preserveAspectRatio="xMidYMid meet">
<metadata>
Created by potrace 1.11, written by Peter Selinger 2001-2013
</metadata>
<g transform="translate(0.000000,16.000000) scale(0.006154,-0.006154)"
fill="#000000" stroke="none">
<path d="M781 1998 c1 -392 5 -607 11 -615 13 -16 32 -17 22 -1 -5 7 -3 8 5 3
9 -5 10 -10 2 -18 -7 -7 -14 -7 -24 1 -11 10 -14 -4 -14 -83 0 -52 4 -95 9
-95 5 0 6 4 3 10 -3 5 -1 10 4 10 16 0 13 -20 -3 -26 -11 -4 -14 -31 -14 -122
-1 -105 1 -115 13 -92 8 14 14 20 15 15 0 -6 -6 -19 -13 -30 -15 -23 -15 -34
-3 -54 6 -9 5 -12 -1 -8 -7 5 -11 -7 -11 -30 0 -37 0 -37 14 -13 7 14 13 20
14 15 0 -6 -8 -22 -17 -35 -10 -14 -16 -27 -14 -30 1 -3 8 -11 14 -19 9 -11 9
-13 0 -8 -8 5 -11 -2 -11 -22 1 -22 5 -28 17 -24 13 4 14 3 2 -5 -21 -15 -23
-45 -3 -61 16 -13 16 -13 0 -8 -15 5 -17 -1 -15 -49 2 -35 8 -59 17 -66 12 -8
12 -9 -2 -4 -12 3 -18 0 -18 -9 0 -8 8 -19 18 -25 14 -9 14 -11 1 -7 -14 5
-16 -4 -17 -59 0 -35 4 -64 9 -64 6 0 7 5 3 12 -5 7 -3 8 6 3 10 -6 9 -11 -4
-21 -16 -11 -16 -13 1 -24 15 -10 15 -11 1 -6 -15 4 -17 -2 -15 -50 2 -35 8
-59 17 -66 12 -8 12 -9 -3 -4 -14 4 -18 1 -15 -12 2 -9 11 -17 20 -17 9 0 20
-4 25 -9 4 -5 3 -6 -4 -2 -8 4 -13 2 -13 -5 0 -9 -3 -9 -14 0 -13 11 -14 1
-12 -66 2 -43 4 -80 5 -83 2 -8 87 -4 101 5 7 5 11 4 7 -1 -6 -11 95 -10 113
1 7 5 11 4 7 -1 -6 -11 95 -10 113 1 7 5 11 4 8 -1 -4 -5 20 -9 53 -9 52 0 59
2 60 20 0 11 1 222 2 469 l2 448 -23 9 c-19 7 -23 29 -6 29 3 0 3 -4 0 -9 -3
-5 4 -11 15 -14 17 -5 20 -2 16 14 -3 10 -2 17 3 14 4 -3 10 4 13 15 6 23 21
24 99 6 61 -15 274 -16 298 -1 24 15 87 17 96 3 5 -7 9 -231 9 -498 1 -267 4
-491 8 -497 5 -8 79 -11 239 -9 l233 1 1 1290 1 1291 -236 -1 -236 0 -1 -455
c-1 -251 -4 -477 -8 -502 -10 -69 -19 -73 -101 -50 -22 6 -52 10 -67 8 -16 -2
-28 1 -28 7 0 5 -7 4 -15 -3 -12 -10 -15 -10 -15 1 0 11 -2 11 -10 -1 -5 -8
-10 -10 -10 -4 0 6 -17 9 -42 7 -24 -2 -58 -5 -76 -6 -18 -1 -37 -9 -42 -17
-6 -9 -10 -10 -10 -3 0 8 -9 9 -32 2 -18 -5 -34 -9 -36 -9 -1 0 -8 12 -14 28
-8 19 -12 170 -13 512 l-1 485 -243 3 -242 2 2 -602z m642 -431 c7 3 8 2 4 -2
-14 -16 -36 -14 -29 3 4 10 7 12 10 4 2 -7 9 -9 15 -5z m164 -19 c-3 -7 -5 -2
-5 12 0 14 2 19 5 13 2 -7 2 -19 0 -25z m57 7 c3 -9 0 -12 -9 -9 -7 3 -16 12
-19 19 -3 9 0 12 9 9 7 -3 16 -12 19 -19z m-301 -5 c3 -11 3 -20 1 -20 -2 0
-8 9 -14 20 -6 11 -7 20 -2 20 6 0 12 -9 15 -20z m145 8 c-2 -6 -10 -13 -16
-14 -7 -1 -8 0 -2 3 5 2 8 9 4 14 -3 5 0 9 6 9 7 0 10 -5 8 -12z m54 -12 c7 4
8 2 4 -5 -4 -6 -12 -9 -17 -6 -5 4 -9 0 -10 -7 0 -10 -2 -10 -6 0 -2 6 -10 9
-15 6 -7 -4 -8 -2 -4 5 4 6 12 9 17 6 5 -4 9 0 10 7 0 10 2 10 6 0 2 -6 10 -9
15 -6z m-92 0 c0 -3 -4 -8 -10 -11 -5 -3 -10 -1 -10 4 0 6 5 11 10 11 6 0 10
-2 10 -4z m116 -20 c0 -14 -5 -21 -9 -17 -4 4 -5 15 -1 24 9 24 12 21 10 -7z
m-151 -7 c-5 -16 -4 -19 5 -14 9 6 11 4 5 -4 -10 -18 -27 2 -19 22 9 25 17 21
9 -4z m-42 -4 c-3 -9 -8 -14 -10 -11 -3 3 -2 9 2 15 9 16 15 13 8 -4z m107 0
c19 -22 8 -25 -12 -3 -10 10 -14 18 -9 18 5 0 14 -7 21 -15z m136 -4 c1 -6 0
-7 -3 -1 -2 5 -9 8 -13 5 -5 -3 -11 -1 -14 4 -4 5 2 8 11 7 9 -2 18 -8 19 -15z
m29 0 c3 -5 2 -12 -3 -15 -5 -3 -9 1 -9 9 0 17 3 19 12 6z m-835 -5 c0 -3 -4
-8 -10 -11 -5 -3 -10 -1 -10 4 0 6 5 11 10 11 6 0 10 -2 10 -4z m664 -22 c3
-8 2 -12 -4 -9 -6 3 -10 10 -10 16 0 14 7 11 14 -7z m51 -3 c-3 -6 -11 -8 -17
-5 -8 5 -9 1 -4 -12 5 -14 4 -16 -5 -7 -13 13 -3 37 12 28 5 -4 9 -1 9 6 0 7
3 10 6 6 3 -3 3 -11 -1 -16z m63 8 c-2 -6 -7 -10 -12 -9 -5 1 -13 -4 -18 -12
-8 -10 -9 -10 -5 2 2 8 10 14 16 13 6 -2 11 2 11 7 0 6 3 10 6 10 3 0 4 -5 2
-11z m-138 -3 c0 -3 -4 -8 -10 -11 -5 -3 -10 -1 -10 4 0 6 5 11 10 11 6 0 10
-2 10 -4z m151 -23 c-12 -20 -14 -14 -5 12 4 9 9 14 11 11 3 -2 0 -13 -6 -23z
m69 23 c0 -3 -4 -8 -10 -11 -5 -3 -10 -1 -10 4 0 6 5 11 10 11 6 0 10 -2 10
-4z m-856 -33 c-16 -12 -17 -15 -4 -23 9 -6 10 -10 3 -10 -20 0 -27 22 -10 35
9 7 13 16 9 20 -4 5 -1 5 7 0 11 -7 11 -11 -5 -22z m21 -53 c3 -6 -1 -7 -9 -4
-18 7 -21 14 -7 14 6 0 13 -4 16 -10z m29 -16 c3 -8 2 -12 -4 -9 -6 3 -10 10
-10 16 0 14 7 11 14 -7z m-14 -29 c0 -8 -4 -15 -10 -15 -5 0 -7 7 -4 15 4 8 8
15 10 15 2 0 4 -7 4 -15z m-30 -35 c-18 -12 -30 -13 -30 -2 0 4 10 9 22 9 18
2 20 0 8 -7z m54 -2 c-3 -5 -9 -6 -14 -3 -5 3 -11 1 -15 -5 -3 -5 -11 -10 -18
-10 -6 0 -3 6 7 13 21 15 48 18 40 5z m6 -28 c-6 -11 -13 -20 -16 -20 -2 0 0
9 6 20 6 11 13 20 16 20 2 0 0 -9 -6 -20z m21 -3 c-10 -9 -11 -8 -5 6 3 10 9
15 12 12 3 -3 0 -11 -7 -18z m-61 -3 c0 -8 -19 -13 -24 -6 -3 5 1 9 9 9 8 0
15 -2 15 -3z m-30 -24 c0 -5 -5 -10 -11 -10 -5 0 -7 5 -4 10 3 6 8 10 11 10 2
0 4 -4 4 -10z m22 -42 c-6 -6 -12 -6 -17 3 -6 8 -4 10 5 4 9 -5 10 -1 6 16 -6
21 -6 22 5 6 7 -13 8 -22 1 -29z m49 5 c-12 -20 -14 -14 -5 12 4 9 9 14 11 11
3 -2 0 -13 -6 -23z m64 9 c-3 -3 -11 0 -18 7 -9 10 -8 11 6 5 10 -3 15 -9 12
-12z m-20 -11 c3 -5 2 -12 -3 -15 -5 -3 -9 1 -9 9 0 17 3 19 12 6z m-31 -23
c-10 -15 -14 -38 -7 -38 2 0 13 5 24 10 10 6 19 8 19 6 0 -3 -13 -12 -28 -20
-28 -14 -29 -14 -27 7 2 27 16 59 22 53 3 -3 1 -11 -3 -18z m79 15 c-7 -2 -19
-2 -25 0 -7 3 -2 5 12 5 14 0 19 -2 13 -5z m-123 -23 c-24 -15 -36 -11 -14 4
10 8 21 12 24 10 2 -3 -2 -9 -10 -14z m-10 -32 c0 -4 -5 -8 -11 -8 -5 0 -7 -6
-3 -12 4 -7 3 -9 -1 -5 -15 13 -14 34 1 34 8 0 14 -4 14 -9z m166 0 c3 -4 -1
-5 -10 -4 -8 1 -18 5 -22 8 -3 4 1 5 10 4 8 -1 18 -5 22 -8z m44 -8 c6 -11 8
-20 6 -20 -3 0 -10 9 -16 20 -6 11 -8 20 -6 20 3 0 10 -9 16 -20z m-84 -8 c1
-7 0 -8 -3 -2 -2 5 -9 10 -14 10 -6 0 -7 -5 -3 -12 4 -7 3 -8 -5 -4 -14 9 -4
29 12 23 6 -2 12 -9 13 -15z m-146 -36 c0 -6 -7 -1 -15 10 -8 10 -15 23 -15
28 0 6 7 1 15 -10 8 -10 15 -23 15 -28z m172 -8 c-6 -6 -12 -6 -17 3 -6 8 -4
10 5 4 9 -5 10 -1 6 16 -6 21 -6 22 5 6 7 -13 8 -22 1 -29z m-139 14 c-10 -10
-20 -17 -22 -16 -6 5 20 34 30 34 5 0 1 -8 -8 -18z m86 9 c10 -7 7 -9 -12 -8
-14 1 -23 5 -20 10 6 9 15 9 32 -2z m145 -7 c3 -8 2 -12 -4 -9 -6 3 -10 10
-10 16 0 14 7 11 14 -7z m-198 -3 c-4 -5 -1 -11 6 -13 7 -3 5 -7 -6 -11 -10
-4 -15 -3 -11 3 3 6 0 10 -7 10 -9 0 -9 3 2 10 19 12 23 12 16 1z m162 -26
c-3 -3 -9 2 -12 12 -6 14 -5 15 5 6 7 -7 10 -15 7 -18z m-128 0 c-7 -8 -17
-15 -23 -15 -6 0 -2 7 9 15 25 19 30 19 14 0z m48 -3 c2 -7 -1 -12 -8 -12 -6
0 -9 4 -6 9 4 5 1 12 -4 14 -6 3 -5 4 2 3 6 -1 14 -8 16 -14z m139 -2 c-2 -11
-7 -23 -12 -27 -4 -5 -5 -2 -1 5 4 6 2 12 -3 12 -6 0 -11 5 -11 11 0 5 5 7 10
4 6 -3 10 -1 10 4 0 6 2 11 5 11 3 0 4 -9 2 -20z m30 -2 c-3 -8 -6 -5 -6 6 -1
11 2 17 5 13 3 -3 4 -12 1 -19z m-284 -3 c-3 -9 -8 -14 -10 -11 -3 3 -2 9 2
15 9 16 15 13 8 -4z m177 5 c0 -5 -4 -10 -10 -10 -5 0 -10 5 -10 10 0 6 5 10
10 10 6 0 10 -4 10 -10z m-220 -20 c0 -5 -4 -10 -10 -10 -5 0 -10 5 -10 10 0
6 5 10 10 10 6 0 10 -4 10 -10z m181 -27 c-11 -16 -11 -15 -5 6 4 17 3 21 -6
16 -9 -6 -11 -4 -5 4 5 9 11 9 17 3 7 -7 6 -16 -1 -29z m174 27 c3 -5 1 -10
-4 -10 -6 0 -11 5 -11 10 0 6 2 10 4 10 3 0 8 -4 11 -10z m-231 -16 c9 -24 2
-26 -12 -4 -7 11 -8 20 -3 20 5 0 12 -7 15 -16z m204 5 c-2 -6 -7 -10 -12 -9
-5 1 -13 -4 -18 -12 -8 -10 -9 -10 -5 2 2 8 10 14 16 13 6 -2 11 2 11 7 0 6 3
10 6 10 3 0 4 -5 2 -11z m67 1 c3 -6 -1 -7 -9 -4 -18 7 -21 14 -7 14 6 0 13
-4 16 -10z m-319 -26 c1 -9 0 -13 -4 -10 -3 4 -7 14 -8 22 -1 9 0 13 4 10 3
-4 7 -14 8 -22z m194 11 c19 -22 8 -25 -12 -3 -10 10 -14 18 -9 18 5 0 14 -7
21 -15z m-230 -6 c12 -8 10 -9 -9 -4 -17 5 -22 4 -16 -5 5 -9 4 -11 -4 -6 -6
4 -9 12 -6 17 8 12 16 11 35 -2z m120 -10 c0 -5 -4 -9 -8 -9 -5 0 -9 7 -9 15
0 8 4 12 9 9 4 -3 8 -9 8 -15z m80 11 c8 -5 11 -10 5 -10 -5 0 -17 5 -25 10
-8 5 -10 10 -5 10 6 0 17 -5 25 -10z m200 -11 c0 -5 -4 -9 -8 -9 -5 0 -9 7 -9
15 0 8 4 12 9 9 4 -3 8 -9 8 -15z m-446 -5 c3 -8 2 -12 -4 -9 -6 3 -10 10 -10
16 0 14 7 11 14 -7z m341 6 c-3 -5 -1 -10 4 -10 13 0 14 -27 2 -35 -5 -3 -13
0 -17 6 -4 8 -3 9 4 5 7 -4 12 -3 12 3 0 5 -5 13 -10 16 -10 6 -5 25 6 25 3 0
2 -4 -1 -10z m63 -29 c-7 -9 -13 -17 -14 -19 -1 -2 -1 8 0 21 0 15 6 23 14 20
10 -4 10 -9 0 -22z m-338 15 c0 -2 -7 -7 -16 -10 -8 -3 -12 -2 -9 4 6 10 25
14 25 6z m60 0 c0 -2 -7 -7 -16 -10 -8 -3 -12 -2 -9 4 6 10 25 14 25 6z m53
-11 c-3 -9 -8 -14 -10 -11 -3 3 -2 9 2 15 9 16 15 13 8 -4z m57 -5 c-12 -23
-16 -24 -26 -8 -4 6 -3 8 3 5 6 -4 13 0 17 8 3 8 8 15 11 15 3 0 1 -9 -5 -20z
m63 5 c-3 -9 -8 -14 -10 -11 -3 3 -2 9 2 15 9 16 15 13 8 -4z m-183 -30 c-7
-8 -16 -15 -21 -15 -5 0 -1 8 9 18 20 22 31 19 12 -3z m84 -15 c-5 -5 -10 3
-11 18 -1 22 0 24 9 8 6 -10 6 -22 2 -26z m126 5 c0 -5 -5 -3 -10 5 -5 8 -10
20 -10 25 0 6 5 3 10 -5 5 -8 10 -19 10 -25z m-159 10 c11 6 11 5 2 -5 -12
-14 -33 -6 -33 13 0 8 3 7 9 -2 5 -8 14 -10 22 -6z m-137 -3 c3 -5 -1 -9 -9
-9 -8 0 -12 4 -9 9 3 4 7 8 9 8 2 0 6 -4 9 -8z m46 -12 c6 -11 8 -20 6 -20 -3
0 -10 9 -16 20 -6 11 -8 20 -6 20 3 0 10 -9 16 -20z m168 -5 c-6 -14 -13 -23
-15 -21 -5 5 15 46 22 46 3 0 -1 -11 -7 -25z m56 17 c3 -5 -1 -9 -9 -9 -8 0
-12 4 -9 9 3 4 7 8 9 8 2 0 6 -4 9 -8z m66 -12 c-24 -15 -36 -11 -14 4 10 8
21 12 24 10 2 -3 -2 -9 -10 -14z m-224 -33 c2 -12 0 -16 -2 -9 -3 6 -10 10
-15 6 -5 -3 -9 0 -9 5 0 6 5 11 11 11 5 0 7 6 3 13 -4 6 -3 9 1 4 5 -4 10 -18
11 -30z m261 13 c-1 -21 -10 -18 -13 5 -1 8 2 15 6 15 5 0 8 -9 7 -20z m-362
-10 c0 -7 -7 -15 -15 -17 -13 -4 -13 -3 0 6 13 10 13 12 0 22 -13 9 -13 10 0
6 8 -2 15 -10 15 -17z m132 -12 c-3 -7 -5 -2 -5 12 0 14 2 19 5 13 2 -7 2 -19
0 -25z m113 22 c-13 -9 -13 -11 0 -20 9 -6 10 -10 3 -10 -6 0 -15 5 -18 10 -8
13 3 30 18 30 7 0 6 -4 -3 -10z m40 -35 c0 -5 -5 -3 -10 5 -5 8 -10 20 -10 25
0 6 5 3 10 -5 5 -8 10 -19 10 -25z m36 23 c3 -4 -1 -5 -10 -4 -8 1 -18 5 -22
8 -3 4 1 5 10 4 8 -1 18 -5 22 -8z m61 -10 c-3 -8 -6 -5 -6 6 -1 11 2 17 5 13
3 -3 4 -12 1 -19z m-337 4 c0 -5 -7 -17 -15 -28 -14 -18 -14 -17 -4 9 12 27
19 34 19 19z m160 -22 c6 -11 8 -20 6 -20 -3 0 -10 9 -16 20 -6 11 -8 20 -6
20 3 0 10 -9 16 -20z m-123 -17 c1 -22 -1 -24 -8 -10 -6 9 -7 22 -4 27 9 14
10 13 12 -17z m225 -15 c-6 -6 -12 -6 -17 3 -6 8 -4 10 5 4 9 -5 10 -1 6 16
-6 21 -6 22 5 6 7 -13 8 -22 1 -29z m53 32 c-3 -5 -12 -10 -18 -10 -7 0 -6 4
3 10 19 12 23 12 15 0z m-365 -6 c0 -8 -19 -13 -24 -6 -3 5 1 9 9 9 8 0 15 -2
15 -3z m134 -2 c2 -4 -4 -8 -14 -8 -10 0 -16 4 -14 8 3 4 9 8 14 8 5 0 11 -4
14 -8z m39 -10 c-10 -10 -20 -17 -22 -16 -6 5 20 34 30 34 5 0 1 -8 -8 -18z
m97 12 c0 -8 -19 -13 -24 -6 -3 5 1 9 9 9 8 0 15 -2 15 -3z m125 -4 c-3 -5
-12 -10 -18 -10 -7 0 -6 4 3 10 19 12 23 12 15 0z m-329 -22 c4 -7 3 -8 -4 -4
-7 4 -12 3 -12 -3 0 -5 6 -12 13 -14 9 -4 9 -6 0 -6 -15 -1 -26 16 -18 29 8
13 12 13 21 -2z m130 -17 c-4 -6 -13 -11 -19 -10 -9 0 -9 2 1 6 6 2 12 9 12
14 0 6 -5 7 -12 3 -7 -5 -8 -3 -3 5 5 9 11 9 17 3 6 -6 7 -15 4 -21z m108 -10
c-5 -6 -34 20 -34 30 0 5 8 1 18 -8 10 -10 17 -20 16 -22z m-299 0 c-6 -5 -25
10 -25 20 0 5 6 4 14 -3 8 -7 12 -15 11 -17z m126 19 c9 13 10 13 6 0 -2 -8
-10 -15 -17 -15 -7 0 -15 7 -17 15 -4 13 -3 13 6 0 10 -13 12 -13 22 0z m124
-9 c-3 -6 -11 -11 -16 -11 -5 0 -4 6 3 14 14 16 24 13 13 -3z m150 9 c3 -6 -1
-7 -9 -4 -18 7 -21 14 -7 14 6 0 13 -4 16 -10z m-45 -10 c8 -5 11 -10 5 -10
-5 0 -17 5 -25 10 -8 5 -10 10 -5 10 6 0 17 -5 25 -10z m-375 -31 c-4 -5 -12
-9 -18 -8 -9 0 -8 2 1 6 6 2 9 10 6 15 -4 7 -2 8 5 4 6 -4 9 -12 6 -17z m61
-5 c1 -9 0 -13 -4 -10 -3 4 -7 14 -8 22 -1 9 0 13 4 10 3 -4 7 -14 8 -22z m56
4 c-7 -7 -16 -6 -29 1 -16 11 -15 11 6 5 17 -4 21 -3 16 6 -6 9 -4 11 4 5 9
-5 9 -11 3 -17z m42 11 c-4 -8 1 -9 17 -5 20 6 21 5 6 -4 -19 -12 -41 -4 -32
11 4 5 8 9 11 9 3 0 2 -5 -2 -11z m62 -4 c-1 -8 -5 -17 -8 -21 -5 -4 -4 16 1
34 3 9 9 -1 7 -13z m58 3 c-5 -8 -2 -9 10 -5 10 4 15 3 11 -3 -3 -6 -1 -10 6
-10 7 0 10 -3 7 -6 -10 -9 -49 16 -43 27 4 5 8 9 11 9 3 0 2 -5 -2 -12z m82 0
c5 -7 3 -8 -6 -3 -9 5 -10 1 -6 -16 6 -20 5 -21 -4 -6 -6 9 -8 22 -5 27 8 13
12 13 21 -2z m-332 -22 c-3 -9 -10 -16 -15 -16 -5 0 -4 9 3 20 14 22 21 20 12
-4z m230 -16 c-6 -5 -24 21 -24 34 0 6 6 1 14 -10 8 -10 12 -21 10 -24z m147
13 c-12 -20 -14 -14 -5 12 4 9 9 14 11 11 3 -2 0 -13 -6 -23z m-24 -8 c0 -8
-4 -15 -9 -15 -10 0 -11 14 -1 23 9 10 10 9 10 -8z m-291 -24 c-4 -6 -13 -11
-19 -10 -9 0 -9 2 1 6 6 2 12 9 12 14 0 6 -5 7 -12 3 -7 -5 -8 -3 -3 5 5 9 11
9 17 3 6 -6 7 -15 4 -21z m54 19 c0 -5 -4 -10 -10 -10 -5 0 -10 5 -10 10 0 6
5 10 10 10 6 0 10 -4 10 -10z m44 -16 c3 -8 2 -12 -4 -9 -6 3 -10 10 -10 16 0
14 7 11 14 -7z m-173 -11 c13 -17 13 -17 -6 -3 -11 8 -22 16 -24 17 -2 2 0 3
6 3 6 0 17 -8 24 -17z m204 7 c-3 -5 0 -10 7 -11 10 0 10 -2 0 -6 -6 -2 -10
-9 -7 -14 4 -5 -1 -6 -10 -2 -13 5 -14 7 -3 14 7 5 9 9 5 9 -9 0 1 20 9 20 3
0 2 -4 -1 -10z m64 7 c-2 -1 -13 -9 -24 -17 -19 -14 -19 -14 -6 3 7 9 18 17
24 17 6 0 8 -1 6 -3z m17 -16 c-4 -5 -1 -11 6 -13 7 -3 5 -7 -6 -11 -10 -4
-15 -3 -11 3 3 6 0 10 -7 10 -9 0 -9 3 2 10 19 12 23 12 16 1z m-236 -11 c8
-5 11 -10 5 -10 -5 0 -17 5 -25 10 -8 5 -10 10 -5 10 6 0 17 -5 25 -10z m37
-5 c0 -8 -4 -12 -9 -9 -5 3 -6 10 -3 15 9 13 12 11 12 -6z m97 -24 c-5 -6 -34
20 -34 30 0 5 8 1 18 -8 10 -10 17 -20 16 -22z m136 14 c-7 -8 -16 -15 -21
-15 -5 0 -1 8 9 18 20 22 31 19 12 -3z m-189 5 c9 13 10 13 6 0 -2 -8 -10 -15
-17 -15 -7 0 -15 7 -17 15 -4 13 -3 13 6 0 10 -13 12 -13 22 0z m229 -15 c14
-19 14 -19 -2 -6 -10 7 -18 18 -18 24 0 6 1 8 3 6 1 -2 9 -13 17 -24z m-344 3
c-10 -6 -22 -6 -26 -2 -5 5 3 10 18 11 22 1 24 0 8 -9z m234 -2 c-7 -7 -13 -7
-20 0 -6 6 -3 10 10 10 13 0 16 -4 10 -10z m145 4 c3 -5 1 -10 -4 -10 -6 0
-11 5 -11 10 0 6 2 10 4 10 3 0 8 -4 11 -10z m-370 -20 c-3 -5 -1 -10 4 -10 6
0 11 -5 11 -11 0 -8 -5 -8 -15 1 -13 11 -12 30 1 30 3 0 2 -4 -1 -10z m120 0
c-3 -5 -1 -10 4 -10 6 0 11 -5 11 -11 0 -8 -5 -8 -15 1 -13 11 -12 30 1 30 3
0 2 -4 -1 -10z m190 -17 c-11 -7 -23 -13 -28 -13 -4 0 -5 -5 -1 -12 5 -7 3 -8
-6 -3 -10 6 -9 11 5 22 11 7 23 13 28 13 4 0 5 5 1 12 -5 7 -3 8 6 3 10 -6 9
-11 -5 -22z m-235 -5 c0 -6 -6 -5 -15 2 -8 7 -15 14 -15 16 0 2 7 1 15 -2 8
-4 15 -11 15 -16z m120 0 c0 -6 -6 -5 -15 2 -8 7 -15 14 -15 16 0 2 7 1 15 -2
8 -4 15 -11 15 -16z m64 7 c-4 -8 -11 -12 -16 -9 -6 4 -5 10 3 15 19 12 19 11
13 -6z m-299 -5 c3 -5 2 -10 -4 -10 -5 0 -13 5 -16 10 -3 6 -2 10 4 10 5 0 13
-4 16 -10z m389 1 c3 -5 -1 -11 -9 -14 -9 -4 -12 -1 -8 9 6 16 10 17 17 5z
m-352 -33 c-7 -7 -16 -6 -29 1 -16 11 -15 11 6 5 17 -4 21 -3 16 6 -6 9 -4 11
4 5 9 -5 9 -11 3 -17z m82 -17 c-5 -6 -34 20 -34 30 0 5 8 1 18 -8 10 -10 17
-20 16 -22z m106 4 c0 -5 -5 -3 -10 5 -5 8 -10 20 -10 25 0 6 5 3 10 -5 5 -8
10 -19 10 -25z m-164 -7 c-9 -12 -16 -19 -16 -15 0 11 24 47 28 42 2 -2 -3
-14 -12 -27z m84 22 c8 -5 11 -10 5 -10 -5 0 -17 5 -25 10 -8 5 -10 10 -5 10
6 0 17 -5 25 -10z m45 -11 c-5 -16 -4 -19 5 -14 9 6 11 4 5 -4 -10 -18 -27 2
-19 22 9 25 17 21 9 -4z m75 11 c8 -5 12 -11 10 -14 -3 -2 -14 2 -24 10 -22
15 -10 19 14 4z m49 -24 c-3 -3 -11 5 -18 17 -13 21 -12 21 5 5 10 -10 16 -20
13 -22z m34 6 c-10 -10 -20 -17 -22 -16 -6 5 20 34 30 34 5 0 1 -8 -8 -18z
m32 -2 c-3 -5 0 -10 7 -11 10 0 10 -2 0 -6 -6 -2 -9 -10 -6 -15 4 -7 2 -8 -5
-4 -6 4 -9 12 -6 17 4 5 0 9 -7 9 -9 0 -9 3 2 10 19 12 23 12 15 0z m-300 -10
c-3 -5 0 -10 7 -11 10 0 10 -2 0 -6 -6 -2 -10 -9 -7 -13 3 -5 0 -12 -6 -16 -8
-4 -9 -3 -5 4 4 7 1 12 -6 12 -9 0 -9 3 2 10 8 5 11 10 7 10 -9 0 1 20 9 20 3
0 2 -4 -1 -10z m171 -19 c-4 -6 -13 -11 -19 -10 -9 0 -9 2 1 6 6 2 12 9 12 14
0 6 -5 7 -12 3 -7 -5 -8 -3 -3 5 5 9 11 9 17 3 6 -6 7 -15 4 -21z m-245 -8
c-12 -20 -14 -14 -5 12 4 9 9 14 11 11 3 -2 0 -13 -6 -23z m419 23 c0 -2 -8
-10 -17 -17 -16 -13 -17 -12 -4 4 13 16 21 21 21 13z m-445 -16 c3 -5 1 -10
-4 -10 -6 0 -11 5 -11 10 0 6 2 10 4 10 3 0 8 -4 11 -10z m199 -5 c11 -8 16
-15 10 -15 -5 0 -18 7 -28 15 -11 8 -16 15 -10 15 5 0 18 -7 28 -15z m169 0
c-3 -9 -8 -14 -10 -11 -3 3 -2 9 2 15 9 16 15 13 8 -4z m-45 -20 c-3 -3 -9 2
-12 12 -6 14 -5 15 5 6 7 -7 10 -15 7 -18z m-287 -12 c-12 -20 -14 -14 -5 12
4 9 9 14 11 11 3 -2 0 -13 -6 -23z m145 15 c4 -7 4 -10 -1 -6 -4 4 -14 0 -22
-10 -13 -15 -13 -15 -3 6 12 25 16 27 26 10z m69 -6 c-3 -3 -11 0 -18 7 -9 10
-8 11 6 5 10 -3 15 -9 12 -12z m29 6 c-5 -8 -1 -9 12 -4 14 5 16 4 7 -5 -13
-13 -37 -3 -28 12 4 5 8 9 11 9 3 0 2 -5 -2 -12z m147 -25 c-12 -20 -14 -14
-5 12 4 9 9 14 11 11 3 -2 0 -13 -6 -23z m-348 -3 c9 -11 13 -20 7 -20 -5 0
-14 9 -20 20 -6 11 -9 20 -8 20 2 0 11 -9 21 -20z m50 13 c3 -5 -6 -9 -20 -10
-19 -1 -22 1 -12 8 17 11 26 11 32 2z m80 -11 c-10 -10 -20 -17 -22 -16 -6 5
20 34 30 34 5 0 1 -8 -8 -18z m193 -8 c1 -9 0 -13 -4 -10 -3 4 -7 14 -8 22 -1
9 0 13 4 10 3 -4 7 -14 8 -22z m-36 5 c12 -8 10 -9 -9 -4 -17 5 -22 4 -16 -5
5 -9 4 -11 -4 -6 -6 4 -9 12 -6 17 8 12 16 11 35 -2z m-26 -38 c-5 -6 -34 20
-34 30 0 5 8 1 18 -8 10 -10 17 -20 16 -22z m-299 19 c3 -6 -1 -7 -9 -4 -18 7
-21 14 -7 14 6 0 13 -4 16 -10z m86 -7 c13 -16 12 -17 -3 -4 -10 7 -18 15 -18
17 0 8 8 3 21 -13z m100 2 c5 4 6 -2 2 -11 -4 -11 -8 -13 -11 -6 -2 7 -8 10
-13 7 -5 -4 -6 2 -2 11 4 11 8 13 11 6 2 -7 8 -10 13 -7z m60 0 c5 4 6 -2 2
-11 -5 -13 -3 -15 7 -9 9 6 11 4 5 -5 -6 -10 -11 -9 -22 5 -7 11 -13 24 -12
29 0 6 3 5 6 -2 2 -6 9 -10 14 -7z m-117 -10 c-4 -8 -11 -12 -16 -9 -6 4 -5
10 3 15 19 12 19 11 13 -6z m226 0 c19 -22 8 -25 -12 -3 -10 10 -14 18 -9 18
5 0 14 -7 21 -15z m-347 -22 c-5 -12 -3 -14 7 -8 9 6 11 4 5 -4 -5 -9 -11 -9
-17 -3 -6 6 -7 15 -4 21 11 17 16 13 9 -6z m183 -11 c-17 -16 -18 -16 -5 5 7
12 15 20 18 17 3 -2 -3 -12 -13 -22z m131 13 c0 -8 -4 -12 -9 -9 -5 3 -6 10
-3 15 9 13 12 11 12 -6z m-233 -11 c9 -24 2 -26 -12 -4 -7 11 -8 20 -3 20 5 0
12 -7 15 -16z m73 -11 c1 -22 -1 -24 -8 -10 -6 9 -7 22 -4 27 9 14 10 13 12
-17z m133 23 c0 -2 -7 -7 -16 -10 -8 -3 -12 -2 -9 4 6 10 25 14 25 6z m65 -36
c0 -3 4 -10 8 -17 10 -16 -41 -10 -56 7 -10 10 -8 10 10 1 12 -6 24 -11 26
-11 7 0 2 28 -6 36 -4 4 -7 12 -7 18 1 10 24 -22 25 -34z m-105 2 c3 -3 -6 -1
-19 3 -18 5 -22 4 -16 -5 5 -8 4 -11 -3 -6 -6 4 -9 13 -5 22 5 14 9 13 43 -14z
m135 18 c3 -5 1 -10 -4 -10 -6 0 -11 5 -11 10 0 6 2 10 4 10 3 0 8 -4 11 -10z
m-330 -9 c3 -5 0 -13 -6 -17 -8 -4 -9 -3 -5 4 4 7 2 12 -3 12 -6 0 -11 -5 -11
-12 0 -6 -3 -9 -6 -5 -7 7 4 27 16 27 5 0 11 -4 15 -9z m81 -13 c4 -7 3 -8 -4
-4 -7 4 -12 2 -12 -4 0 -6 -5 -8 -11 -4 -8 4 -7 9 2 15 18 11 17 11 25 -3z
m-122 -14 c3 -8 2 -12 -4 -9 -6 3 -10 10 -10 16 0 14 7 11 14 -7z m157 -11
c-12 -20 -14 -14 -5 12 4 9 9 14 11 11 3 -2 0 -13 -6 -23z m-216 7 c3 -5 1
-10 -4 -10 -6 0 -11 5 -11 10 0 6 2 10 4 10 3 0 8 -4 11 -10z m135 0 c8 -5 11
-10 5 -10 -5 0 -17 5 -25 10 -8 5 -10 10 -5 10 6 0 17 -5 25 -10z m160 0 c-8
-5 -19 -10 -25 -10 -5 0 -3 5 5 10 8 5 20 10 25 10 6 0 3 -5 -5 -10z m45 -9
c3 -5 0 -13 -6 -17 -8 -5 -9 -3 -4 6 6 10 4 12 -9 7 -10 -4 -15 -3 -11 3 8 13
22 13 30 1z m-305 -26 c-7 -8 -16 -15 -21 -15 -5 0 -1 8 9 18 20 22 31 19 12
-3z m64 14 c-4 -8 1 -9 17 -5 20 6 21 5 6 -4 -19 -12 -41 -4 -32 11 4 5 8 9
11 9 3 0 2 -5 -2 -11z m147 -9 c6 0 7 5 3 12 -5 7 -3 8 5 3 9 -5 9 -11 3 -17
-12 -12 -32 -2 -31 15 0 9 2 9 6 0 2 -7 9 -13 14 -13z m-161 -34 c0 -6 -7 -1
-15 10 -8 10 -15 23 -15 28 0 6 7 1 15 -10 8 -10 15 -23 15 -28z m204 20 c-3
-9 -10 -16 -15 -16 -5 0 -4 9 3 20 14 22 21 20 12 -4z m-120 -1 c-4 -8 -11
-12 -16 -9 -6 4 -5 10 3 15 19 12 19 11 13 -6z m50 7 c3 -5 -1 -9 -9 -9 -8 0
-12 4 -9 9 3 4 7 8 9 8 2 0 6 -4 9 -8z m149 1 c3 -5 -6 -9 -20 -10 -19 -1 -22
1 -12 8 17 11 26 11 32 2z m37 -14 c0 -5 6 -7 13 -3 6 4 9 3 4 -1 -4 -5 -18
-10 -30 -11 -12 -2 -16 0 -9 2 6 3 10 10 6 15 -3 5 0 9 5 9 6 0 11 -5 11 -11z
m-345 -20 c-4 -5 -12 -9 -18 -8 -9 0 -8 2 1 6 6 2 9 10 6 15 -4 7 -2 8 5 4 6
-4 9 -12 6 -17z m69 -5 c3 -8 2 -12 -4 -9 -6 3 -10 10 -10 16 0 14 7 11 14 -7z
m86 12 c0 -2 -7 -7 -16 -10 -8 -3 -12 -2 -9 4 6 10 25 14 25 6z m120 0 c0 -2
-7 -7 -16 -10 -8 -3 -12 -2 -9 4 6 10 25 14 25 6z m-165 -16 c-3 -5 -12 -10
-18 -10 -7 0 -6 4 3 10 19 12 23 12 15 0z m60 0 c-3 -5 -12 -10 -18 -10 -7 0
-6 4 3 10 19 12 23 12 15 0z m55 -5 c-7 -8 -17 -15 -23 -15 -6 0 -2 7 9 15 25
19 30 19 14 0z m-228 -27 c-7 -7 -16 -6 -29 1 -16 11 -15 11 6 5 17 -4 21 -3
16 6 -6 9 -4 11 4 5 9 -5 9 -11 3 -17z m82 -17 c-5 -6 -34 20 -34 30 0 5 8 1
18 -8 10 -10 17 -20 16 -22z m47 2 c-11 -16 -11 -15 -5 6 4 17 3 21 -6 16 -9
-6 -11 -4 -5 4 5 9 11 9 17 3 7 -7 6 -16 -1 -29z m134 17 c-3 -5 1 -11 7 -13
10 -4 10 -6 0 -6 -7 -1 -15 6 -18 14 -4 8 -11 12 -17 8 -6 -3 -7 -1 -3 5 4 6
13 9 21 6 8 -4 13 -10 10 -14z m61 8 c5 -7 3 -8 -6 -3 -9 5 -10 1 -6 -16 6
-20 5 -21 -4 -6 -6 9 -8 22 -5 27 8 13 12 13 21 -2z m-300 -30 c-9 -12 -16
-19 -16 -15 0 11 24 47 28 42 2 -2 -3 -14 -12 -27z m345 5 c-12 -20 -14 -14
-5 12 4 9 9 14 11 11 3 -2 0 -13 -6 -23z m-151 2 c19 -22 8 -25 -12 -3 -10 10
-14 18 -9 18 5 0 14 -7 21 -15z m-35 -5 c3 -6 -1 -7 -9 -4 -18 7 -21 14 -7 14
6 0 13 -4 16 -10z m162 -5 c0 -8 -4 -15 -9 -15 -10 0 -11 14 -1 23 9 10 10 9
10 -8z m-302 -5 c-3 -5 0 -10 7 -11 10 0 10 -2 0 -6 -6 -2 -10 -9 -7 -13 3 -5
0 -12 -6 -16 -8 -4 -9 -3 -5 4 4 7 1 12 -6 12 -9 0 -9 3 2 10 8 5 11 10 7 10
-9 0 1 20 9 20 3 0 2 -4 -1 -10z m65 0 c0 -5 -5 -10 -11 -10 -5 0 -7 5 -4 10
3 6 8 10 11 10 2 0 4 -4 4 -10z m-139 -27 c-12 -20 -14 -14 -5 12 4 9 9 14 11
11 3 -2 0 -13 -6 -23z m243 11 c3 -8 2 -12 -4 -9 -6 3 -10 0 -11 -7 0 -10 -2
-10 -6 0 -2 6 -10 9 -15 6 -7 -4 -8 -2 -4 5 4 6 12 9 17 6 5 -4 9 -1 9 4 0 16
7 13 14 -5z m-269 -4 c3 -5 1 -10 -4 -10 -6 0 -11 5 -11 10 0 6 2 10 4 10 3 0
8 -4 11 -10z m200 1 c-9 -8 -36 -10 -30 -2 2 4 11 8 20 8 8 0 13 -3 10 -6z
m120 -11 c-3 -5 1 -11 7 -13 10 -4 10 -6 1 -6 -7 -1 -17 8 -23 19 -9 16 -8 18
5 14 8 -3 13 -10 10 -14z m-284 -27 c-12 -20 -14 -14 -5 12 4 9 9 14 11 11 3
-2 0 -13 -6 -23z m319 2 c-7 -8 -16 -15 -21 -15 -5 0 -1 8 9 18 20 22 31 19
12 -3z m-150 5 c8 -5 12 -11 10 -14 -3 -2 -14 2 -24 10 -22 15 -10 19 14 4z
m74 -20 c-6 -6 -10 -3 -10 10 0 13 4 16 10 10 7 -7 7 -13 0 -20z m116 5 c14
-19 14 -19 -2 -6 -10 7 -18 18 -18 24 0 6 1 8 3 6 1 -2 9 -13 17 -24z m-317
-5 c9 -11 13 -20 7 -20 -5 0 -14 9 -20 20 -6 11 -9 20 -8 20 2 0 11 -9 21 -20z
m50 13 c3 -5 -6 -9 -20 -10 -19 -1 -22 1 -12 8 17 11 26 11 32 2z m37 -3 c0
-5 -5 -10 -11 -10 -5 0 -7 5 -4 10 3 6 8 10 11 10 2 0 4 -4 4 -10z m78 -10
c-7 -10 -14 -17 -17 -15 -4 4 18 35 25 35 2 0 -1 -9 -8 -20z m187 10 c3 -5 1
-10 -4 -10 -6 0 -11 5 -11 10 0 6 2 10 4 10 3 0 8 -4 11 -10z m-244 -47 c-11
-16 -11 -15 -5 6 4 17 3 21 -6 16 -9 -6 -11 -4 -5 4 5 9 11 9 17 3 7 -7 6 -16
-1 -29z m193 12 c-4 -8 -11 -12 -17 -8 -8 5 -7 8 1 11 7 2 9 9 6 14 -4 7 -2 8
4 4 6 -4 9 -13 6 -21z m-344 1 c-1 -5 4 -13 12 -18 11 -8 11 -9 0 -6 -8 2 -13
7 -12 12 1 5 -4 13 -12 18 -11 8 -11 9 0 6 8 -2 13 -7 12 -12z m215 -7 c-5
-16 -4 -19 5 -14 9 6 11 4 5 -4 -10 -18 -27 2 -19 22 9 25 17 21 9 -4z m63 1
c-7 -10 -14 -18 -15 -16 -6 6 9 36 18 36 5 0 4 -9 -3 -20z m-150 -25 c-3 -3
-9 2 -12 12 -6 14 -5 15 5 6 7 -7 10 -15 7 -18z m-22 3 c5 -7 3 -8 -6 -3 -9 5
-10 1 -6 -16 6 -20 5 -21 -4 -6 -6 9 -8 22 -5 27 8 13 12 13 21 -2z m134 -13
c-7 -8 -16 -15 -21 -15 -5 0 -1 8 9 18 20 22 31 19 12 -3z m104 -14 c-5 -6
-34 20 -34 30 0 5 8 1 18 -8 10 -10 17 -20 16 -22z m-52 7 c-9 -9 -15 -9 -24
1 -11 10 -10 11 5 6 10 -5 17 -2 17 6 0 7 3 9 7 6 4 -4 1 -13 -5 -19z m78 12
c8 -5 11 -10 5 -10 -5 0 -17 5 -25 10 -8 5 -10 10 -5 10 6 0 17 -5 25 -10z
m-357 -18 c-10 -10 -20 -17 -22 -16 -6 5 20 34 30 34 5 0 1 -8 -8 -18z m141
10 c3 -5 -1 -9 -9 -9 -8 0 -12 4 -9 9 3 4 7 8 9 8 2 0 6 -4 9 -8z m46 -12 c6
-11 8 -20 6 -20 -3 0 -10 9 -16 20 -6 11 -8 20 -6 20 3 0 10 -9 16 -20z m-140
6 c0 -2 -7 -7 -16 -10 -8 -3 -12 -2 -9 4 6 10 25 14 25 6z m70 -41 c0 -5 -5
-3 -10 5 -5 8 -10 20 -10 25 0 6 5 3 10 -5 5 -8 10 -19 10 -25z m175 25 c-3
-5 -1 -10 4 -10 6 0 11 -5 11 -11 0 -5 -4 -8 -9 -5 -5 4 -12 0 -15 -6 -2 -7
-3 -2 -1 12 4 31 4 30 11 30 3 0 2 -4 -1 -10z m-275 -15 c5 3 12 0 16 -6 4 -8
3 -9 -4 -5 -7 4 -12 1 -12 -6 0 -9 -3 -9 -10 2 -5 8 -9 20 -9 25 0 6 3 4 6 -3
2 -6 9 -10 13 -7z m135 -5 c0 -7 -7 -15 -15 -17 -13 -4 -13 -3 0 6 13 10 13
12 0 22 -13 9 -13 10 0 6 8 -2 15 -10 15 -17z m102 -12 c-3 -7 -5 -2 -5 12 0
14 2 19 5 13 2 -7 2 -19 0 -25z m-282 0 c5 4 5 1 1 -6 -6 -10 -11 -10 -22 -1
-8 6 -14 17 -14 23 0 6 7 3 14 -6 7 -10 17 -14 21 -10z m121 10 c3 -4 -1 -5
-10 -4 -8 1 -18 5 -22 8 -3 4 1 5 10 4 8 -1 18 -5 22 -8z m288 4 c3 -5 -1 -9
-9 -9 -8 0 -15 4 -15 9 0 10 17 10 24 0z m-184 -10 c0 -5 -7 -17 -15 -28 -14
-18 -14 -17 -4 9 12 27 19 34 19 19z m159 -22 c11 -24 11 -24 -3 -6 -9 11 -16
24 -16 30 0 12 5 7 19 -24z m-363 -4 c0 -14 -5 -21 -9 -17 -4 4 -5 15 -1 24 9
24 12 21 10 -7z m78 0 c-10 -8 -21 -12 -24 -10 -5 6 21 24 34 24 6 0 1 -6 -10
-14z m163 -13 c1 -22 -1 -24 -8 -10 -6 9 -7 22 -4 27 9 14 10 13 12 -17z m75
-9 c-9 -16 -10 -14 -9 8 1 15 6 23 11 18 4 -4 4 -16 -2 -26z m-273 -8 c-3 -3
-11 5 -18 17 -13 21 -12 21 5 5 10 -10 16 -20 13 -22z m81 -1 c0 -5 -5 -3 -10
5 -5 8 -10 20 -10 25 0 6 5 3 10 -5 5 -8 10 -19 10 -25z m30 29 c0 -8 -19 -13
-24 -6 -3 5 1 9 9 9 8 0 15 -2 15 -3z m134 -2 c2 -4 -4 -8 -14 -8 -10 0 -16 4
-14 8 3 4 9 8 14 8 5 0 11 -4 14 -8z m-326 -37 c-3 -3 -9 2 -12 12 -6 14 -5
15 5 6 7 -7 10 -15 7 -18z m138 13 c4 -7 4 -10 -1 -6 -4 4 -14 0 -22 -10 -13
-15 -13 -15 -3 6 12 25 16 27 26 10z m120 0 c4 -7 4 -10 -1 -6 -4 4 -14 0 -22
-10 -13 -15 -13 -15 -3 6 12 25 16 27 26 10z m133 -6 c7 -14 6 -19 -4 -19 -7
0 -11 7 -7 15 4 11 1 13 -8 7 -9 -5 -11 -4 -6 3 10 16 14 15 25 -6z m-332 -14
c-3 -8 -6 -5 -6 6 -1 11 2 17 5 13 3 -3 4 -12 1 -19z m120 0 c-3 -8 -6 -5 -6
6 -1 11 2 17 5 13 3 -3 4 -12 1 -19z m120 0 c-3 -8 -6 -5 -6 6 -1 11 2 17 5
13 3 -3 4 -12 1 -19z"/>
<path d="M480 2540 c-23 -14 -23 -104 0 -125 27 -24 45 -13 75 45 34 67 49 65
42 -5 -4 -44 -3 -55 9 -55 27 0 38 64 20 117 -16 49 -69 32 -97 -32 -24 -55
-39 -51 -28 7 8 47 2 62 -21 48z"/>
<path d="M410 2329 c-13 -8 -13 -10 0 -19 8 -6 27 -9 42 -7 23 3 25 1 17 -14
-12 -22 -7 -50 12 -80 13 -19 24 -23 66 -23 78 1 90 19 81 119 l-3 30 -100 2
c-56 1 -107 -2 -115 -8z m180 -45 c7 -7 10 -23 8 -36 -2 -19 -10 -23 -45 -26
-33 -2 -44 1 -52 16 -16 29 19 71 53 65 14 -3 30 -11 36 -19z"/>
<path d="M603 2090 c-5 -17 -14 -20 -69 -20 -70 0 -81 -9 -70 -55 8 -31 24
-32 35 -3 7 19 16 23 55 23 37 1 46 -2 46 -16 0 -18 17 -35 26 -26 8 7 12 89
7 105 -8 19 -24 14 -30 -8z"/>
<path d="M390 2050 c0 -11 7 -23 16 -27 20 -8 36 17 22 34 -16 20 -38 15 -38
-7z"/>
<path d="M477 1892 c-21 -23 -21 -39 -3 -74 12 -23 12 -27 -1 -32 -34 -13 4
-26 78 -26 71 0 80 2 77 18 -2 13 -13 17 -47 17 -34 0 -47 5 -67 28 -23 26
-23 59 -1 54 6 -1 13 6 15 16 5 23 -30 23 -51 -1z"/>
<path d="M480 1678 c-22 -24 -24 -36 -11 -71 9 -24 8 -25 -24 -24 -38 1 -50
-6 -40 -22 4 -7 49 -11 115 -11 l109 0 1 33 c1 69 -1 81 -17 99 -24 27 -106
25 -133 -4z m108 -21 c27 -21 4 -68 -36 -74 -34 -4 -69 57 -46 80 9 9 68 5 82
-6z"/>
<path d="M466 1475 c-3 -8 -1 -16 4 -16 20 -3 26 -5 74 -23 l49 -19 -47 -24
c-27 -13 -50 -22 -54 -19 -8 9 -33 -15 -26 -25 10 -17 51 -9 109 20 63 32 82
31 87 -2 4 -32 32 -27 33 6 2 33 1 34 -102 80 -89 40 -118 45 -127 22z"/>
<path d="M479 1249 c-12 -12 -18 -27 -15 -40 4 -10 8 -28 12 -39 4 -16 1 -19
-24 -16 -16 2 -35 1 -42 -4 -30 -18 6 -28 110 -28 88 0 110 3 110 14 0 16 1
16 -59 18 -38 1 -47 6 -62 31 -20 32 -10 57 20 54 56 -5 101 2 101 16 0 12
-14 15 -65 15 -52 0 -69 -4 -86 -21z"/>
<path d="M479 1044 c-17 -21 -20 -41 -8 -71 6 -17 6 -30 -2 -39 -16 -19 1 -23
86 -21 55 2 70 5 70 17 0 11 -12 15 -50 16 -43 0 -51 4 -67 29 -21 35 -11 49
35 51 82 3 87 4 87 19 0 22 -132 21 -151 -1z"/>
<path d="M541 842 c-63 -4 -80 -19 -79 -70 1 -40 23 -63 33 -34 3 11 5 24 4
28 -4 25 2 45 14 41 6 -2 12 -19 12 -38 0 -45 14 -67 48 -73 37 -6 63 22 61
66 -1 18 -3 35 -4 38 -2 3 -3 14 -4 24 -1 21 -7 22 -85 18z m47 -44 c7 -7 12
-25 12 -40 0 -21 -5 -28 -20 -28 -17 0 -20 7 -20 40 0 41 7 49 28 28z"/>
<path d="M486 625 c-17 -9 -21 -20 -21 -65 -1 -82 -3 -80 87 -80 69 0 79 2 76
17 -2 13 -15 17 -55 17 -29 1 -58 7 -65 14 -13 13 -18 12 67 15 37 2 50 6 50
17 0 11 -14 15 -58 16 -55 2 -77 8 -66 19 3 2 33 6 67 7 50 2 62 6 60 18 -4
18 -108 22 -142 5z"/>
<path d="M475 417 c-26 -14 -7 -26 41 -24 38 1 50 -3 66 -22 33 -41 21 -56
-49 -59 -42 -2 -63 -7 -67 -17 -6 -16 4 -18 89 -15 28 1 55 6 61 11 19 16 23
46 8 73 -7 14 -9 26 -3 26 11 0 12 29 2 31 -33 6 -136 3 -148 -4z"/>
<path d="M507 202 c-42 -5 -54 -39 -32 -94 6 -15 1 -18 -34 -18 -30 0 -41 -4
-41 -15 0 -16 7 -16 135 -16 94 0 95 0 95 16 0 11 -13 15 -53 15 -47 0 -54 3
-69 28 -9 15 -14 33 -10 39 4 7 36 13 70 14 51 2 62 5 60 18 -3 16 -50 21
-121 13z"/>
</g>
</svg>
