<?xml version="1.0" standalone="no"?>
<!DOCTYPE svg PUBLIC "-//W3C//DTD SVG 20010904//EN"
 "http://www.w3.org/TR/2001/REC-SVG-20010904/DTD/svg10.dtd">
<svg version="1.0" xmlns="http://www.w3.org/2000/svg"
 width="303.000000pt" height="303.000000pt" viewBox="0 0 303.000000 303.000000"
 preserveAspectRatio="xMidYMid meet">
<metadata>
Created by potrace 1.11, written by Peter Selinger 2001-2013
</metadata>
<g transform="translate(0.000000,303.000000) scale(0.100000,-0.100000)"
fill="#000000" stroke="none">
<path d="M1575 3015 c-109 -18 -201 -40 -288 -71 -81 -29 -263 -118 -288 -140
-8 -8 -19 -14 -23 -14 -18 0 -179 -131 -256 -209 -285 -286 -440 -655 -443
-1051 -1 -181 19 -312 77 -490 51 -161 159 -355 269 -485 232 -275 531 -454
878 -525 115 -24 363 -34 466 -18 32 4 74 11 93 13 141 21 299 80 506 189 55
28 158 110 173 137 20 37 7 93 -34 137 -145 160 -184 208 -179 222 13 30 16
60 10 84 -3 13 -68 87 -144 163 l-138 140 -45 -39 c-171 -150 -416 -192 -629
-108 -304 120 -460 470 -345 777 146 389 626 522 952 265 l50 -40 152 152
c145 147 151 154 151 193 0 30 -7 50 -25 71 -21 25 -23 33 -13 44 7 7 41 49
76 93 35 44 70 89 79 99 29 35 36 82 17 121 -39 84 -342 226 -589 277 -125 25
-391 32 -510 13z"/>
</g>
</svg>
