<?xml version="1.0" standalone="no"?>
<!DOCTYPE svg PUBLIC "-//W3C//DTD SVG 20010904//EN"
 "http://www.w3.org/TR/2001/REC-SVG-20010904/DTD/svg10.dtd">
<svg version="1.0" xmlns="http://www.w3.org/2000/svg"
 width="16.000000pt" height="16.000000pt" viewBox="0 0 16.000000 16.000000"
 preserveAspectRatio="xMidYMid meet">
<metadata>
Created by potrace 1.11, written by Peter Selinger 2001-2013
</metadata>
<g transform="translate(0.000000,16.000000) scale(0.020000,-0.020000)"
fill="#000000" stroke="none">
<path d="M360 503 c0 -21 9 -57 20 -80 10 -24 15 -43 10 -43 -5 0 -16 -7 -24
-16 -15 -14 -16 -13 -16 9 0 13 -11 41 -25 61 -14 20 -28 48 -31 61 -8 32 -19
31 -54 -4 -36 -36 -46 -73 -29 -112 13 -33 61 -69 92 -69 22 0 21 -2 -4 -51
-11 -23 -18 -47 -15 -55 9 -22 35 -16 48 11 18 40 40 39 87 -4 36 -33 50 -40
80 -38 36 2 39 8 30 47 -2 8 2 14 9 12 7 -1 17 9 22 22 5 13 13 27 19 30 6 4
5 19 -4 41 -14 31 -13 38 10 87 24 52 34 128 16 128 -16 0 -50 -51 -63 -91 -9
-30 -14 -36 -24 -28 -7 6 -18 8 -23 5 -5 -4 -12 -2 -16 4 -10 16 -25 12 -25
-7 -1 -10 -9 4 -20 31 -19 48 -46 86 -62 86 -4 0 -8 -17 -8 -37z"/>
</g>
</svg>
