<svg id="Layer_1" data-name="Layer 1" xmlns="http://www.w3.org/2000/svg" viewBox="0 0 247.14 302.64"><defs><style>.cls-1{fill:#0071bc;}.cls-2{fill:#29abe2;}.cls-3{fill:none;stroke:#0071bc;stroke-linecap:round;stroke-miterlimit:10;}</style></defs><title>CCLogo</title><path class="cls-1" d="M531.59,296.27a55.91,55.91,0,0,0,4.53-4.28l25.45,25.44a10.08,10.08,0,0,1,.72,13.43Z" transform="translate(-338.67 -98.09)"/><path class="cls-2" d="M581.66,369.82A151.44,151.44,0,0,1,490,400.73c-83,0-151.32-68.3-151.32-151.32S407,98.09,490,98.09a151.46,151.46,0,0,1,84.91,26.06,10.64,10.64,0,0,1,2.34,15.4l-17.73,22.34h0a109.33,109.33,0,0,0-67.74-23.54c-60,0-109.31,49.34-109.31,109.31S431.8,357,491.77,357a109.36,109.36,0,0,0,69-24.53,9.51,9.51,0,0,0,1.54-1.57l20.83,23.47A10.61,10.61,0,0,1,581.66,369.82Z" transform="translate(-338.67 -98.09)"/><path class="cls-1" d="M560.88,163a10.09,10.09,0,0,1,.81,15l-27.26,27.17a55.38,55.38,0,0,0-5.5-4.73l30.58-38.51h0C560,162.25,560.43,162.6,560.88,163Z" transform="translate(-338.67 -98.09)"/><path class="cls-1" d="M559.5,161.89,528.92,200.4a61.59,61.59,0,1,0,2.67,95.87l30.7,34.59a9.51,9.51,0,0,1-1.54,1.57,109.36,109.36,0,0,1-69,24.53c-60,0-109.31-49.35-109.31-109.31S431.8,138.34,491.77,138.34A109.33,109.33,0,0,1,559.5,161.89Z" transform="translate(-338.67 -98.09)"/><path class="cls-3" d="M559.52,161.89c.46.36.91.72,1.36,1.09a10.09,10.09,0,0,1,.81,15l-27.26,27.17" transform="translate(-338.67 -98.09)"/><path class="cls-3" d="M536.13,292l25.45,25.44a10.08,10.08,0,0,1,.72,13.43,9.51,9.51,0,0,1-1.54,1.57,109.36,109.36,0,0,1-69,24.53c-60,0-109.31-49.35-109.31-109.31S431.8,138.34,491.77,138.34a109.33,109.33,0,0,1,67.74,23.54" transform="translate(-338.67 -98.09)"/><path class="cls-3" d="M536.13,292a55.91,55.91,0,0,1-4.53,4.28,61.6,61.6,0,1,1-2.67-95.87,55.38,55.38,0,0,1,5.5,4.73" transform="translate(-338.67 -98.09)"/></svg>